<svg xmlns="http://www.w3.org/2000/svg" xmlns:xlink="http://www.w3.org/1999/xlink" viewBox="0 0 478 381.4"><defs><style>.cls-1{fill:none;}.cls-2{clip-path:url(#clip-path);}.cls-3{fill:#9333ea;}</style><clipPath id="clip-path" transform="translate(0.02)"><rect class="cls-1" x="0.02" y="-0.17" width="477.92" height="382"/></clipPath></defs><g class="cls-2"><path class="cls-3" d="M278.18,0l6.22,1.87L463.63,53.6,478,58V88.5l-12.44,5-167.4,66.05-3.74,1.25H183.59l-3.12-1.25L74.68,119.66h-.62c-17.55-7-34.23,4.43-34.23,23.06v1.87c0,11.49,5.8,20.21,16.81,25.55.44.22.77.42,1.24.62L239,239.32,389,182c42.2-16.9,89,15.25,89,60.45v1.87c0,27.92-17.77,51.67-41.69,62.32h-.63l-.61.62L245.82,378.91,239,381.4l-6.84-2.49-125.71-48,.62-1.24L0,290.41V246.79l120.73,46.74v.63h.63L239,339l181.1-68.55,1.24-.62c11-5.33,16.8-14.06,16.8-25.55v-1.87c0-18.62-16.67-30.09-34.22-23.06h-.63L245.82,279.2,239,281.69l-6.84-2.49L43,207.53l-.63-.62h-.62C17.78,196.26,0,172.5,0,144.59v-1.87C0,111.31,23,87.72,51,81v-.63l6.23-1.86L272,2.5Zm.62,42.38L125.71,96l65.35,24.92h.62L239,89.12l47.3,31.78L398.91,76.66Z" transform="translate(0.02)"/></g></svg>